<svg xmlns="http://www.w3.org/2000/svg" xml:space="preserve" width="184.582" height="227.104" viewBox="0 0 184.582 227.104">
  <path fill="none" stroke="#fff" stroke-linecap="round" stroke-linejoin="round" stroke-width="6" d="M163.479 3H21.103C11.121 3 3 11.51 3 21.969v183.164c0 10.459 8.121 18.971 18.103 18.971H163.48c9.982 0 18.102-8.512 18.102-18.971V21.969C181.581 11.51 173.462 3 163.479 3"/>
  <path fill="#fff" d="M112.831 130.709c-3.256 0-6.76 2.121-6.76 6.777v55.393c0 5.029 3.912 7.281 7.789 7.281 3.438 0 7.453-1.906 7.453-7.281V174.25h20.428c4.297 0 6.76-2.242 6.76-6.15 0-3.918-2.463-6.166-6.76-6.166h-20.428v-15.9h26.59c1.594 0 2.918-.539 3.941-1.6 1.365-1.416 2.129-3.758 2.043-6.262-.119-3.717-2.24-7.463-6.707-7.463zM81.036 165.59c0-8.021-4.229-17.389-16.148-17.389-11.922 0-16.152 9.367-16.152 17.389 0 8.02 4.23 17.383 16.152 17.383 11.919 0 16.148-9.364 16.148-17.383m17.584.064c0 21.58-13.045 35.525-33.234 35.525-20.192 0-33.239-13.945-33.239-35.525 0-21.574 13.047-35.516 33.239-35.516 20.189.001 33.234 13.942 33.234 35.516M26.999 55.668c3.155 0 3.674-3.007 3.674-10.915 0-7.868-.519-10.915-3.674-10.915-3.153 0-3.672 3.047-3.672 10.915.001 7.908.52 10.915 3.672 10.915m0-26.196c8.013 0 9.015 6.343 9.015 15.281s-1.002 15.281-9.015 15.281-9.016-6.343-9.016-15.281 1.003-15.281 9.016-15.281m13.126 11.697h-2.599v-3.871h2.599v-2.514c0-3.994 2.039-5.312 5.342-5.312.927 0 1.817.04 2.745.123v4.038c-.333-.043-.668-.043-1.001-.043-1.446 0-1.966.494-1.966 1.771v1.937h2.967v3.871h-2.967v18.287h-5.12zm10.976 0h-2.597v-3.871h2.597v-2.514c0-3.994 2.041-5.312 5.344-5.312.927 0 1.817.04 2.744.123v4.038c-.333-.043-.667-.043-1.002-.043-1.446 0-1.965.494-1.965 1.771v1.937h2.967v3.871h-2.967v18.287h-5.121zm19.474 4.696c-.111-3.377-.481-5.272-2.597-5.272-2.041 0-2.635 2.348-2.635 4.406v.866zm-5.232 3.377v1.772c0 2.594.631 5.146 2.524 5.146 1.708 0 2.412-1.439 2.708-4.159h4.601c-.185 5.151-2.412 8.033-7.236 8.033-7.421 0-7.716-6.343-7.716-11.862 0-5.932 1.039-11.45 7.94-11.45 5.974 0 7.308 4.448 7.308 11.244v1.276zm12.793-11.944h4.897v2.594h.074c1.077-2.183 2.931-3.171 5.084-3.171 3.191 0 5.083 1.935 5.083 6.302v16.433h-5.12v-15.28c0-2.223-.668-3.089-2.189-3.089-1.745 0-2.71 1.195-2.71 3.666v14.703h-5.119zm26.371 18.37c2.227 0 2.672-2.471 2.672-7.29 0-4.82-.445-7.291-2.672-7.291-2.264 0-2.707 2.471-2.707 7.291 0 4.819.443 7.29 2.707 7.29m-7.826-25.619h5.119v9.307h.076c1.072-1.771 2.369-2.634 4.303-2.634 4.189 0 6.119 3.418 6.119 11.656 0 8.237-1.93 11.656-6.119 11.656-2.008 0-3.416-.865-4.529-2.925h-.074v2.348h-4.895zm27.855 18.329a6.08 6.08 0 0 1-2.186 1.111c-2.084.493-2.898 1.607-2.898 3.582 0 1.69.555 3.088 1.928 3.088 1.373 0 3.156-.987 3.156-3.416zm-9.348-4.283v-.537c0-5.106 3.15-6.836 7.012-6.836 6.082 0 7.236 2.801 7.236 6.796v11.655c0 2.06.109 3.007.629 4.284h-4.9c-.336-.7-.479-1.564-.629-2.305h-.074c-1.189 2.305-2.639 2.882-5.084 2.882-3.561 0-4.824-3.378-4.824-6.342 0-4.161 1.523-5.85 5.049-6.92l2.891-.866c1.523-.452 2.043-1.111 2.043-2.595 0-1.687-.668-2.718-2.377-2.718-1.559 0-2.373 1.154-2.373 2.882v.62zm27.479 1.194c0-2.141-.369-4.448-2.297-4.448-2.527 0-2.932 2.47-2.932 7.577 0 5.48.445 7.743 2.748 7.743 1.701 0 2.48-1.605 2.48-5.189h4.898c0 5.81-2.186 9.063-7.605 9.063-5.117 0-7.645-2.761-7.645-11.656 0-9.105 3.381-11.656 8.09-11.656 4.713 0 7.16 3.335 7.16 8.566zm7.566-15.24h5.117v9.514h.076c.963-1.895 2.707-2.842 4.857-2.842 3.193 0 5.084 1.935 5.084 6.302v16.433h-5.117v-15.28c0-2.223-.67-3.089-2.193-3.089-1.742 0-2.707 1.195-2.707 3.666v14.703h-5.117zM27.748 85.099a6.1 6.1 0 0 1-2.189 1.113c-2.078.492-2.895 1.605-2.895 3.582 0 1.69.558 3.089 1.929 3.089 1.373 0 3.155-.988 3.155-3.417zm-9.351-4.284v-.534c0-5.109 3.155-6.839 7.013-6.839 6.085 0 7.235 2.801 7.235 6.798v11.655c0 2.06.111 3.005.633 4.285h-4.899c-.335-.703-.484-1.567-.631-2.308h-.075c-1.187 2.308-2.633 2.884-5.082 2.884-3.563 0-4.824-3.377-4.824-6.344 0-4.159 1.523-5.849 5.046-6.918l2.894-.866c1.521-.453 2.041-1.113 2.041-2.594 0-1.69-.667-2.721-2.376-2.721-1.558 0-2.374 1.154-2.374 2.885v.617zm17.874-6.797h4.899v2.267h.073c1.3-2.018 2.895-2.844 5.046-2.844 2.338 0 4.045 1.279 4.601 3.544h.074c.78-2.348 2.636-3.544 5.046-3.544 3.378 0 4.972 2.348 4.972 6.632v16.106h-5.118V80.693c0-1.854-.558-2.884-2.005-2.884-1.632 0-2.671 1.234-2.671 3.788v14.582h-5.121V80.693c0-1.854-.556-2.884-2.004-2.884-1.633 0-2.671 1.234-2.671 3.788v14.582h-5.121zm42.167-1.316V96.18h-4.897V66.769h7.94l3.785 20.761h.074l3.824-20.761h7.899V96.18h-4.897V72.702h-.074L87.38 96.18h-4.153l-4.714-23.478zm31.596 12.397a6.112 6.112 0 0 1-2.188 1.113c-2.076.492-2.891 1.605-2.891 3.582 0 1.69.555 3.089 1.928 3.089 1.373 0 3.15-.988 3.15-3.417v-4.367zm-9.348-4.284v-.534c0-5.109 3.156-6.839 7.012-6.839 6.088 0 7.234 2.801 7.234 6.798v11.655c0 2.06.111 3.005.631 4.285h-4.895c-.334-.703-.484-1.567-.635-2.308h-.068c-1.189 2.308-2.639 2.884-5.084 2.884-3.566 0-4.824-3.377-4.824-6.344 0-4.159 1.518-5.849 5.043-6.918l2.896-.866c1.518-.453 2.037-1.113 2.037-2.594 0-1.69-.664-2.721-2.371-2.721-1.559 0-2.377 1.154-2.377 2.885v.617zm18.061-6.796h5.119V96.18h-5.119zm0-7.577h5.119v4.859h-5.119zm8.715 7.576h4.898v2.594h.076c1.074-2.181 2.932-3.171 5.078-3.171 3.189 0 5.084 1.937 5.084 6.303v16.435h-5.119V80.897c0-2.224-.67-3.088-2.186-3.088-1.75 0-2.713 1.193-2.713 3.665v14.705h-5.119V74.018z"/>
</svg>
