<?xml version="1.0" encoding="utf-8"?>
<!-- Generator: Adobe Illustrator 26.0.2, SVG Export Plug-In . SVG Version: 6.00 Build 0)  -->
<svg version="1.1" xmlns="http://www.w3.org/2000/svg" xmlns:xlink="http://www.w3.org/1999/xlink" x="0px" y="0px"
	 viewBox="0 0 1104.37 472.44" style="enable-background:new 0 0 1104.37 472.44;" xml:space="preserve">
<style type="text/css">
	.st0{fill:#FFFFFF;}
	.st1{clip-path:url(#SVGID_00000173875834630322431080000012400946590912078467_);fill:#FFFFFF;}
	.st2{fill:#E63312;}
</style>
<g id="Stadtmarke_x5F_mSchutzzone">
	<rect class="st0" width="1104.37" height="472.44"/>
	<polygon class="st0" points="377.95,94.49 377.95,0 0,0 0,377.95 94.49,377.95 94.49,472.44 472.44,472.44 472.44,94.49 	"/>
	<g>
		<g>
			<defs>
				<rect id="SVGID_1_" x="94.5" y="94.49" width="283.45" height="283.46"/>
			</defs>
			<clipPath id="SVGID_00000008858590522967418650000015248437743738719119_">
				<use xlink:href="#SVGID_1_"  style="overflow:visible;"/>
			</clipPath>
			
				<rect x="94.5" y="94.49" style="clip-path:url(#SVGID_00000008858590522967418650000015248437743738719119_);fill:#FFFFFF;" width="283.45" height="283.46"/>
		</g>
		<path class="st2" d="M347.32,356.05c-1.47,0.73-2.48,2.24-2.47,3.98c0.02,2.45,2.01,4.42,4.46,4.4c0.72-0.01,1.39-0.2,1.99-0.51
			l0.01,0.03l26.63-13.47v-9.97l-30.64,15.51L347.32,356.05"/>
		<path class="st2" d="M328.24,318.54l0.01,0.03c-1.47,0.73-2.48,2.23-2.47,3.98c0.02,2.45,2.01,4.42,4.46,4.4
			c0.72,0,1.39-0.2,1.99-0.51l0.01,0.03l45.7-23.12v-9.97L328.24,318.54"/>
		<path class="st2" d="M359.29,243.23h-0.03c0.03-1.64-0.83-3.23-2.39-4.03c-2.18-1.12-4.85-0.27-5.97,1.91
			c-0.33,0.64-0.47,1.32-0.47,2l-0.03,0l-0.26,14.67l8.89,3.98L359.29,243.23"/>
		<path class="st2" d="M337.97,337c-1.47,0.73-2.48,2.24-2.47,3.98c0.02,2.45,2.01,4.42,4.46,4.4c0.72,0,1.39-0.2,1.99-0.51
			l0.02,0.03l35.98-18.21v-9.96l-40,20.24L337.97,337"/>
		<path class="st2" d="M280.57,225.79c0,2.54-1.64,4.61-3.66,4.61h-7.9c-2.02,0-3.66-2.07-3.66-4.61c0-2.54,1.64-4.61,3.66-4.61h7.9
			C278.93,221.18,280.57,223.25,280.57,225.79 M94.49,94.49h283.46v141.36c-2.54-10.49-11.97-18.29-23.23-18.29
			c-13.22,0-23.93,10.71-23.93,23.93l0.08,16.29l-6.82,3.65c0,0-1.89,0.94-2.56,2.05c-0.85,1.41-0.38,3.2,0.8,4.25l0,0.01
			l19.19,16.68l-30.93,15.39l0.08,0.17c-9.4,5.45-15.73,15.6-15.73,27.25c0,4.26,0.86,8.33,2.39,12.04l18.89,38.69h-10.36
			l-25.02-49.98c15.11-18.97,26.48-41.51,26.48-69.78c0-11.37-2.75-22.1-7.62-31.55c0,0,2.48-3.22,2.48-8.81
			c0-5.59-1.43-8.24-2.48-9.02c-0.82-0.61-1.93-1.03-4.9-1.03c-2.02,0-27.91,0.13-28.29,0.15c-1.28,0.05-2.46,0.18-3.39,0.4
			c-5.29,1.24-23.22,5.27-23.22,5.27s-1.3,0.25-1.97,1c-0.79,0.88-0.95,1.71-1.01,2.77c-0.06,1.07-0.05,17.43,0,18.84
			c0.06,1.8,0.01,3.27,0.96,4.16c0.95,0.9,2.01,1.12,3.35,1.1c1.34-0.02,22.03-0.14,23.65-0.14c2.36-0.01,4.03,0.21,5.19,1.25
			c1.66,1.48,1.66,4.8,1.07,6.9c-0.53,1.9-1.75,3.84-3.91,4.92c-2.16,1.08-6.37,1.97-10.41,1.92c-4.14-0.05-9.46-0.54-10.8-0.64
			c-1.68-0.12-2.62,0.33-3.75,1.67c-0.48,0.57-3.4,4.39-4.01,5.16c-1.24,1.59-1.69,2.8-1.37,4.16c0.25,1.05,2.39,3.47,3.13,4.3
			c-8.53,0.45-14.4,3.98-18.25,12.05l-30.98-36.49c3.91-5.28,4.24-12.66,0.29-18.35c-3.38-4.86-9-7.23-14.49-6.69
			c-0.31-0.59-0.64-1.16-1.02-1.72c-4.96-7.15-14.78-8.92-21.93-3.95c-7.15,4.96-8.92,14.78-3.96,21.93
			c0.25,0.37,0.53,0.71,0.81,1.05c-3.18,5.17-3.21,11.94,0.47,17.25c4.25,6.13,12.07,8.29,18.72,5.66l35.58,50.03l-22.82,16.84
			c-2.74-3.08-6.67-5.1-11.12-5.28c-8.69-0.35-16.03,6.41-16.38,15.1c-0.02,0.44-0.01,0.88,0.01,1.32
			c-5.66,2.2-9.77,7.58-10.03,14.04c-0.35,8.7,6.41,16.03,15.1,16.38c3.2,0.13,6.21-0.71,8.77-2.25c2.42,1.74,5.35,2.83,8.56,2.96
			c8.69,0.36,16.03-6.41,16.38-15.1c0.05-1.24-0.06-2.44-0.28-3.61l41.15-20.48l13.49,27.1c-11.8,9.58-37.23,19.2-66.37,19.2H94.49
			V94.49 M220.55,245.12c-2.2,0-4.27-2.4-4.27-4.94c0-2.36,1.91-4.27,4.27-4.27c1.61,0,3.06,0.88,3.8,2.31
			c0.94,1.79,3.13,2.48,4.94,1.56c1.8-0.94,2.49-3.14,1.56-4.94c-2.01-3.86-5.95-6.26-10.3-6.26c-6.39,0-11.59,5.2-11.59,11.59
			c0,6.64,5.31,12.26,11.59,12.26h28.22c2.02,0,3.66-1.64,3.66-3.66s-1.64-3.66-3.66-3.66H220.55z"/>
	</g>
</g>
<g id="Text_x5F_BS-Loewenstadt_x5F_Z">
	<g>
		<path d="M490.88,187.26c-3.12,0-6.26-0.1-9.44-0.3c-3.17-0.2-5.95-0.61-8.33-1.23v-57.21c1.25-0.23,2.58-0.44,4-0.64
			c1.42-0.2,2.86-0.35,4.33-0.47c1.47-0.11,2.93-0.2,4.38-0.25c1.44-0.06,2.82-0.08,4.12-0.08c3.57,0,6.88,0.27,9.95,0.81
			c3.06,0.54,5.71,1.43,7.95,2.68c2.24,1.25,3.98,2.89,5.23,4.93c1.25,2.04,1.87,4.56,1.87,7.56c0,2.78-0.67,5.16-2,7.14
			c-1.33,1.98-3.19,3.57-5.57,4.76c3.57,1.19,6.21,2.95,7.91,5.27c1.7,2.32,2.55,5.27,2.55,8.84c0,6.06-2.21,10.61-6.63,13.64
			C506.77,185.75,500,187.26,490.88,187.26z M483.65,151.65h7.57c4.08,0,7.28-0.58,9.6-1.74c2.32-1.16,3.49-3.24,3.49-6.25
			c0-2.83-1.21-4.85-3.61-6.04c-2.41-1.19-5.54-1.79-9.39-1.79c-1.64,0-3.1,0.03-4.38,0.08c-1.27,0.06-2.37,0.14-3.27,0.26V151.65z
			 M483.65,160.06V178c1.19,0.11,2.46,0.2,3.83,0.25c1.36,0.06,2.61,0.08,3.74,0.08c2.21,0,4.26-0.14,6.16-0.42
			c1.9-0.28,3.54-0.78,4.93-1.49c1.39-0.71,2.49-1.66,3.31-2.85c0.82-1.19,1.23-2.72,1.23-4.59c0-3.34-1.22-5.67-3.66-6.97
			c-2.44-1.3-5.81-1.96-10.11-1.96H483.65z"/>
		<path d="M553.78,151.39c-0.85-0.28-2.03-0.58-3.53-0.89c-1.5-0.31-3.25-0.47-5.23-0.47c-1.13,0-2.34,0.11-3.61,0.34
			c-1.28,0.23-2.17,0.42-2.68,0.59v35.62h-10.29v-42.33c1.98-0.74,4.46-1.43,7.44-2.08c2.97-0.65,6.28-0.98,9.9-0.98
			c0.68,0,1.47,0.04,2.38,0.13c0.91,0.08,1.81,0.2,2.72,0.34c0.91,0.14,1.78,0.31,2.63,0.51c0.85,0.2,1.53,0.38,2.04,0.55
			L553.78,151.39z"/>
		<path d="M577.49,141.02c3.4,0,6.26,0.43,8.58,1.27c2.32,0.85,4.18,2.04,5.57,3.57c1.39,1.53,2.38,3.39,2.98,5.57
			c0.59,2.18,0.89,4.58,0.89,7.18v26.94c-1.59,0.34-3.98,0.75-7.18,1.23c-3.2,0.48-6.82,0.72-10.84,0.72c-2.66,0-5.1-0.25-7.31-0.77
			c-2.21-0.51-4.09-1.33-5.65-2.46c-1.56-1.13-2.78-2.61-3.65-4.42c-0.88-1.81-1.32-4.05-1.32-6.72c0-2.55,0.5-4.7,1.49-6.46
			c0.99-1.76,2.34-3.19,4.04-4.29s3.67-1.9,5.91-2.38c2.24-0.48,4.58-0.72,7.01-0.72c1.13,0,2.32,0.07,3.57,0.21
			c1.25,0.14,2.58,0.38,4,0.72v-1.7c0-1.19-0.14-2.32-0.42-3.4c-0.28-1.08-0.78-2.03-1.49-2.85c-0.71-0.82-1.64-1.46-2.8-1.91
			c-1.16-0.45-2.62-0.68-4.38-0.68c-2.38,0-4.56,0.17-6.55,0.51c-1.98,0.34-3.6,0.74-4.84,1.19l-1.27-8.33
			c1.3-0.45,3.2-0.91,5.69-1.36C572,141.25,574.66,141.02,577.49,141.02z M578.34,179.36c3.17,0,5.58-0.17,7.23-0.51v-11.39
			c-0.57-0.17-1.39-0.34-2.46-0.51c-1.08-0.17-2.27-0.26-3.57-0.26c-1.13,0-2.28,0.08-3.44,0.26c-1.16,0.17-2.21,0.48-3.15,0.93
			c-0.93,0.45-1.69,1.09-2.25,1.91c-0.57,0.82-0.85,1.86-0.85,3.1c0,2.44,0.77,4.12,2.3,5.06
			C573.67,178.89,575.74,179.36,578.34,179.36z"/>
		<path d="M644.56,185.22c-1.98,0.51-4.56,1.03-7.73,1.57c-3.17,0.54-6.66,0.81-10.46,0.81c-3.57,0-6.56-0.51-8.97-1.53
			c-2.41-1.02-4.33-2.44-5.78-4.25c-1.44-1.81-2.48-3.98-3.1-6.5c-0.62-2.52-0.93-5.28-0.93-8.29v-24.91h10.29v23.29
			c0,4.76,0.69,8.16,2.08,10.2c1.39,2.04,3.81,3.06,7.27,3.06c1.25,0,2.56-0.06,3.95-0.17c1.39-0.11,2.42-0.25,3.1-0.42v-35.96
			h10.29V185.22z"/>
		<path d="M657.65,143.57c1.98-0.57,4.56-1.11,7.74-1.62c3.17-0.51,6.69-0.77,10.54-0.77c3.62,0,6.66,0.5,9.09,1.49
			c2.44,0.99,4.38,2.38,5.82,4.17c1.45,1.78,2.46,3.94,3.06,6.46c0.59,2.52,0.89,5.28,0.89,8.29v24.99h-10.29v-23.38
			c0-2.38-0.16-4.41-0.47-6.08c-0.31-1.67-0.82-3.03-1.53-4.08c-0.71-1.05-1.67-1.81-2.89-2.29c-1.22-0.48-2.71-0.72-4.46-0.72
			c-1.3,0-2.66,0.08-4.08,0.25c-1.42,0.17-2.46,0.31-3.14,0.42v35.87h-10.29V143.57z"/>
		<path d="M718.51,179.19c2.72,0,4.7-0.33,5.95-0.98c1.25-0.65,1.87-1.77,1.87-3.36c0-1.47-0.67-2.69-2-3.65
			c-1.33-0.96-3.53-2.01-6.59-3.15c-1.87-0.68-3.58-1.4-5.14-2.17c-1.56-0.77-2.9-1.66-4.04-2.68c-1.13-1.02-2.03-2.25-2.68-3.7
			c-0.65-1.45-0.98-3.22-0.98-5.31c0-4.08,1.5-7.3,4.5-9.65c3-2.35,7.08-3.53,12.24-3.53c2.61,0,5.1,0.24,7.48,0.72
			c2.38,0.48,4.17,0.95,5.36,1.4l-1.87,8.33c-1.13-0.51-2.58-0.98-4.33-1.4c-1.76-0.43-3.8-0.64-6.12-0.64c-2.1,0-3.8,0.35-5.1,1.06
			c-1.3,0.71-1.96,1.8-1.96,3.27c0,0.74,0.13,1.39,0.38,1.96c0.26,0.57,0.69,1.09,1.32,1.57c0.62,0.48,1.44,0.96,2.46,1.45
			c1.02,0.48,2.27,0.98,3.74,1.49c2.44,0.91,4.51,1.8,6.21,2.68c1.7,0.88,3.1,1.87,4.21,2.98c1.1,1.1,1.91,2.37,2.42,3.78
			c0.51,1.42,0.77,3.12,0.77,5.1c0,4.25-1.57,7.47-4.72,9.65c-3.14,2.18-7.64,3.27-13.47,3.27c-3.91,0-7.05-0.33-9.43-0.98
			s-4.05-1.18-5.02-1.57l1.79-8.58c1.53,0.62,3.36,1.22,5.48,1.78C713.36,178.9,715.79,179.19,718.51,179.19z"/>
		<path d="M743.75,164.4c0-3.29,0.51-6.36,1.53-9.22c1.02-2.86,2.48-5.34,4.38-7.44c1.9-2.1,4.21-3.74,6.93-4.93
			s5.78-1.79,9.18-1.79c4.19,0,8.16,0.77,11.9,2.29l-2.21,8.42c-1.19-0.51-2.54-0.94-4.04-1.27c-1.5-0.34-3.1-0.51-4.8-0.51
			c-4.02,0-7.08,1.26-9.18,3.78c-2.1,2.52-3.14,6.08-3.14,10.67c0,4.42,0.99,7.92,2.97,10.5c1.98,2.58,5.33,3.87,10.03,3.87
			c1.76,0,3.49-0.17,5.18-0.51c1.7-0.34,3.17-0.77,4.42-1.27l1.44,8.5c-1.13,0.57-2.85,1.08-5.14,1.53
			c-2.29,0.45-4.66,0.68-7.1,0.68c-3.8,0-7.1-0.58-9.9-1.74c-2.8-1.16-5.13-2.78-6.97-4.84c-1.84-2.07-3.22-4.53-4.12-7.4
			C744.2,170.84,743.75,167.74,743.75,164.4z"/>
		<path d="M786.33,186.58v-64.26l10.29-1.7v22.02c1.13-0.4,2.45-0.74,3.95-1.02c1.5-0.28,2.99-0.43,4.46-0.43
			c3.57,0,6.53,0.5,8.88,1.49c2.35,0.99,4.24,2.38,5.65,4.17c1.42,1.78,2.42,3.92,3.02,6.42c0.59,2.49,0.89,5.27,0.89,8.33v24.99
			h-10.29v-23.38c0-2.38-0.16-4.41-0.47-6.08c-0.31-1.67-0.82-3.03-1.53-4.08c-0.71-1.05-1.66-1.81-2.85-2.29
			c-1.19-0.48-2.66-0.72-4.42-0.72c-1.36,0-2.75,0.14-4.17,0.42c-1.42,0.28-2.46,0.54-3.14,0.77v35.36H786.33z"/>
		<path d="M861.43,158.62c-1.3,4.99-2.7,9.85-4.21,14.58c-1.5,4.73-2.99,9.19-4.46,13.39h-8.44c-1.14-2.61-2.33-5.58-3.58-8.92
			c-1.25-3.34-2.5-6.91-3.75-10.71c-1.25-3.8-2.5-7.79-3.75-11.99c-1.25-4.19-2.47-8.47-3.66-12.83h10.88
			c0.51,2.38,1.11,4.94,1.79,7.69c0.68,2.75,1.39,5.55,2.14,8.42c0.74,2.86,1.51,5.65,2.31,8.37c0.8,2.72,1.59,5.21,2.39,7.48
			c0.85-2.61,1.69-5.3,2.51-8.07c0.82-2.78,1.6-5.55,2.34-8.33c0.74-2.78,1.43-5.48,2.09-8.12c0.65-2.63,1.24-5.11,1.75-7.44h7.9
			c0.51,2.32,1.08,4.8,1.7,7.44c0.62,2.64,1.29,5.34,1.99,8.12c0.71,2.78,1.47,5.55,2.29,8.33c0.82,2.78,1.65,5.47,2.5,8.07
			c0.74-2.27,1.51-4.76,2.31-7.48c0.8-2.72,1.58-5.51,2.35-8.37c0.77-2.86,1.5-5.67,2.18-8.42c0.68-2.75,1.28-5.31,1.79-7.69h10.63
			c-1.19,4.36-2.41,8.64-3.66,12.83c-1.25,4.19-2.5,8.19-3.75,11.99c-1.25,3.8-2.5,7.37-3.75,10.71c-1.25,3.34-2.47,6.32-3.66,8.92
			h-8.36c-1.47-4.19-2.99-8.66-4.54-13.39C864.16,168.46,862.73,163.6,861.43,158.62z"/>
		<path d="M898.7,164.57c0-3.91,0.58-7.34,1.74-10.28c1.16-2.95,2.71-5.4,4.63-7.35c1.93-1.96,4.14-3.43,6.63-4.42
			c2.49-0.99,5.04-1.49,7.65-1.49c6.12,0,10.89,1.9,14.32,5.69c3.43,3.8,5.14,9.46,5.14,17c0,0.57-0.01,1.21-0.04,1.91
			c-0.03,0.71-0.07,1.35-0.13,1.91h-29.33c0.28,3.57,1.54,6.33,3.78,8.29c2.24,1.96,5.48,2.93,9.73,2.93c2.49,0,4.77-0.23,6.84-0.68
			c2.07-0.45,3.7-0.94,4.89-1.44l1.36,8.42c-0.57,0.28-1.35,0.58-2.34,0.89c-0.99,0.31-2.12,0.6-3.4,0.85
			c-1.27,0.25-2.65,0.47-4.12,0.64c-1.47,0.17-2.98,0.25-4.5,0.25c-3.91,0-7.31-0.58-10.2-1.74c-2.89-1.16-5.27-2.78-7.14-4.84
			c-1.87-2.07-3.26-4.5-4.17-7.31C899.16,170.98,898.7,167.91,898.7,164.57z M928.54,159.98c0-1.42-0.2-2.76-0.59-4.04
			c-0.4-1.27-0.98-2.38-1.74-3.31c-0.76-0.94-1.7-1.67-2.8-2.21c-1.1-0.54-2.42-0.81-3.95-0.81c-1.59,0-2.98,0.3-4.17,0.89
			c-1.19,0.6-2.2,1.37-3.02,2.34c-0.82,0.96-1.46,2.07-1.91,3.31c-0.45,1.25-0.76,2.52-0.93,3.83H928.54z"/>
		<path d="M961.18,129.12c0,1.93-0.62,3.46-1.87,4.59c-1.25,1.13-2.72,1.7-4.42,1.7c-1.76,0-3.26-0.57-4.51-1.7
			c-1.25-1.13-1.87-2.66-1.87-4.59c0-1.98,0.62-3.54,1.87-4.67c1.25-1.13,2.75-1.7,4.51-1.7c1.7,0,3.17,0.57,4.42,1.7
			C960.55,125.58,961.18,127.14,961.18,129.12z M960.07,186.58h-10.29v-44.46h10.29V186.58z"/>
		<path d="M1009.88,182.08c0,7.08-1.8,12.27-5.4,15.55c-3.6,3.29-9.11,4.93-16.53,4.93c-2.72,0-5.37-0.23-7.95-0.68
			c-2.58-0.45-4.92-1.05-7.01-1.78l1.87-8.76c1.76,0.74,3.75,1.33,5.99,1.79c2.24,0.45,4.66,0.68,7.27,0.68
			c4.14,0,7.08-0.85,8.84-2.55c1.76-1.7,2.64-4.22,2.64-7.56v-1.7c-1.02,0.51-2.37,1.02-4.04,1.53c-1.67,0.51-3.58,0.77-5.74,0.77
			c-2.83,0-5.43-0.45-7.78-1.36c-2.35-0.91-4.36-2.24-6.04-4c-1.67-1.76-2.97-3.95-3.91-6.59c-0.93-2.64-1.4-5.68-1.4-9.14
			c0-3.23,0.5-6.21,1.49-8.92c0.99-2.72,2.44-5.04,4.33-6.97c1.9-1.93,4.21-3.43,6.93-4.5c2.72-1.08,5.81-1.62,9.26-1.62
			c3.34,0,6.52,0.26,9.52,0.77c3,0.51,5.55,1.05,7.65,1.62V182.08z M981.24,163.21c0,4.36,0.95,7.55,2.85,9.56
			c1.9,2.01,4.35,3.02,7.35,3.02c1.64,0,3.19-0.23,4.63-0.68c1.45-0.45,2.62-0.99,3.53-1.61v-23.04c-0.74-0.17-1.64-0.33-2.72-0.47
			c-1.08-0.14-2.44-0.21-4.08-0.21c-3.74,0-6.6,1.23-8.58,3.7C982.23,155.94,981.24,159.18,981.24,163.21z"/>
		<path d="M510.34,273.32v9.26h-37.23v-58.9h10.71v49.64H510.34z"/>
		<path d="M557.35,260.31c0,3.51-0.51,6.71-1.53,9.6c-1.02,2.89-2.46,5.36-4.33,7.4c-1.87,2.04-4.12,3.63-6.76,4.76
			c-2.64,1.13-5.54,1.7-8.71,1.7c-3.17,0-6.06-0.57-8.67-1.7c-2.61-1.13-4.84-2.72-6.71-4.76c-1.87-2.04-3.33-4.51-4.38-7.4
			c-1.05-2.89-1.57-6.09-1.57-9.6s0.52-6.7,1.57-9.56c1.05-2.86,2.52-5.31,4.42-7.35c1.9-2.04,4.15-3.61,6.76-4.72
			c2.61-1.1,5.47-1.66,8.58-1.66c3.12,0,5.99,0.55,8.63,1.66c2.63,1.1,4.89,2.68,6.76,4.72c1.87,2.04,3.33,4.49,4.38,7.35
			C556.82,253.61,557.35,256.8,557.35,260.31z M527.26,230.82c-1.53,0-2.86-0.51-4-1.53c-1.13-1.02-1.7-2.41-1.7-4.17
			c0-1.76,0.57-3.16,1.7-4.21c1.13-1.05,2.46-1.57,4-1.57s2.88,0.52,4.04,1.57c1.16,1.05,1.74,2.45,1.74,4.21
			c0,1.76-0.58,3.15-1.74,4.17C530.13,230.31,528.79,230.82,527.26,230.82z M546.81,260.31c0-4.42-0.95-7.92-2.85-10.5
			c-1.9-2.58-4.55-3.87-7.95-3.87s-6.05,1.29-7.95,3.87c-1.9,2.58-2.85,6.08-2.85,10.5c0,4.48,0.95,8.02,2.85,10.62
			c1.9,2.61,4.55,3.91,7.95,3.91s6.05-1.3,7.95-3.91C545.86,268.33,546.81,264.79,546.81,260.31z M544.85,230.82
			c-1.53,0-2.88-0.51-4.04-1.53c-1.16-1.02-1.74-2.41-1.74-4.17c0-1.76,0.58-3.16,1.74-4.21c1.16-1.05,2.51-1.57,4.04-1.57
			s2.86,0.52,4,1.57c1.13,1.05,1.7,2.45,1.7,4.21c0,1.76-0.57,3.15-1.7,4.17C547.71,230.31,546.38,230.82,544.85,230.82z"/>
		<path d="M593.6,254.62c-1.3,4.99-2.7,9.85-4.21,14.58c-1.5,4.73-2.99,9.19-4.46,13.39h-8.44c-1.14-2.61-2.33-5.58-3.58-8.92
			c-1.25-3.34-2.5-6.91-3.75-10.71c-1.25-3.8-2.5-7.79-3.75-11.99c-1.25-4.19-2.47-8.47-3.66-12.83h10.88
			c0.51,2.38,1.11,4.94,1.79,7.69c0.68,2.75,1.39,5.55,2.14,8.42c0.74,2.86,1.51,5.65,2.31,8.37c0.8,2.72,1.59,5.21,2.39,7.48
			c0.85-2.61,1.69-5.3,2.51-8.08c0.82-2.78,1.6-5.55,2.34-8.33c0.74-2.78,1.43-5.48,2.09-8.12s1.24-5.11,1.75-7.44h7.9
			c0.51,2.32,1.08,4.8,1.7,7.44c0.62,2.63,1.29,5.34,1.99,8.12c0.71,2.78,1.47,5.55,2.29,8.33c0.82,2.78,1.65,5.47,2.5,8.08
			c0.74-2.27,1.51-4.76,2.31-7.48c0.8-2.72,1.58-5.51,2.35-8.37c0.77-2.86,1.5-5.67,2.18-8.42c0.68-2.75,1.28-5.31,1.79-7.69h10.63
			c-1.19,4.36-2.41,8.64-3.66,12.83c-1.25,4.19-2.5,8.19-3.75,11.99c-1.25,3.8-2.5,7.37-3.75,10.71c-1.25,3.34-2.47,6.32-3.66,8.92
			h-8.36c-1.47-4.19-2.99-8.66-4.54-13.39C596.33,264.46,594.9,259.6,593.6,254.62z"/>
		<path d="M630.87,260.57c0-3.91,0.58-7.34,1.74-10.29c1.16-2.95,2.71-5.4,4.63-7.35c1.93-1.96,4.14-3.43,6.63-4.42
			c2.49-0.99,5.04-1.49,7.65-1.49c6.12,0,10.89,1.9,14.32,5.69c3.43,3.8,5.14,9.46,5.14,17c0,0.57-0.01,1.21-0.04,1.91
			c-0.03,0.71-0.07,1.35-0.13,1.91H641.5c0.28,3.57,1.54,6.33,3.78,8.29c2.24,1.96,5.48,2.93,9.73,2.93c2.49,0,4.77-0.23,6.84-0.68
			c2.07-0.45,3.7-0.93,4.89-1.45l1.36,8.42c-0.57,0.28-1.35,0.58-2.34,0.89c-0.99,0.31-2.12,0.59-3.4,0.85
			c-1.27,0.25-2.65,0.47-4.12,0.64c-1.47,0.17-2.98,0.26-4.5,0.26c-3.91,0-7.31-0.58-10.2-1.74c-2.89-1.16-5.27-2.78-7.14-4.84
			c-1.87-2.07-3.26-4.5-4.17-7.31C631.33,266.98,630.87,263.91,630.87,260.57z M660.71,255.98c0-1.42-0.2-2.76-0.59-4.04
			c-0.4-1.28-0.98-2.38-1.74-3.31c-0.76-0.94-1.7-1.67-2.8-2.21c-1.1-0.54-2.42-0.81-3.95-0.81c-1.59,0-2.98,0.3-4.17,0.89
			c-1.19,0.59-2.2,1.37-3.02,2.34c-0.82,0.96-1.46,2.07-1.91,3.32c-0.45,1.25-0.76,2.52-0.93,3.82H660.71z"/>
		<path d="M681.87,239.57c1.98-0.57,4.56-1.11,7.74-1.62c3.17-0.51,6.69-0.77,10.54-0.77c3.62,0,6.66,0.5,9.09,1.49
			c2.44,0.99,4.38,2.38,5.82,4.17c1.45,1.79,2.46,3.94,3.06,6.46c0.59,2.52,0.89,5.28,0.89,8.29v24.99h-10.29v-23.38
			c0-2.38-0.16-4.41-0.47-6.08c-0.31-1.67-0.82-3.03-1.53-4.08c-0.71-1.05-1.67-1.81-2.89-2.29c-1.22-0.48-2.71-0.72-4.46-0.72
			c-1.3,0-2.66,0.08-4.08,0.25c-1.42,0.17-2.46,0.31-3.14,0.42v35.87h-10.29V239.57z"/>
		<path d="M742.73,275.19c2.72,0,4.7-0.33,5.95-0.98c1.25-0.65,1.87-1.77,1.87-3.36c0-1.47-0.67-2.69-2-3.65
			c-1.33-0.96-3.53-2.01-6.59-3.15c-1.87-0.68-3.58-1.4-5.14-2.17c-1.56-0.77-2.9-1.66-4.04-2.68c-1.13-1.02-2.03-2.25-2.68-3.7
			c-0.65-1.45-0.98-3.22-0.98-5.31c0-4.08,1.5-7.3,4.5-9.65c3-2.35,7.08-3.53,12.24-3.53c2.61,0,5.1,0.24,7.48,0.72
			c2.38,0.48,4.17,0.95,5.36,1.4l-1.87,8.33c-1.13-0.51-2.58-0.98-4.33-1.4c-1.76-0.42-3.8-0.64-6.12-0.64c-2.1,0-3.8,0.35-5.1,1.06
			c-1.3,0.71-1.96,1.8-1.96,3.27c0,0.74,0.13,1.39,0.38,1.95c0.26,0.57,0.69,1.09,1.32,1.57c0.62,0.48,1.44,0.96,2.46,1.44
			c1.02,0.48,2.27,0.98,3.74,1.49c2.44,0.91,4.51,1.8,6.21,2.68c1.7,0.88,3.1,1.87,4.21,2.98c1.1,1.1,1.91,2.37,2.42,3.78
			c0.51,1.42,0.77,3.12,0.77,5.1c0,4.25-1.57,7.47-4.72,9.65c-3.14,2.18-7.64,3.27-13.47,3.27c-3.91,0-7.05-0.33-9.43-0.98
			c-2.38-0.65-4.05-1.18-5.02-1.57l1.79-8.58c1.53,0.62,3.36,1.22,5.48,1.79C737.59,274.9,740.01,275.19,742.73,275.19z"/>
		<path d="M769.93,226.4l10.29-1.7v13.43h15.81v8.58h-15.81v18.11c0,3.57,0.57,6.12,1.7,7.65c1.13,1.53,3.06,2.29,5.78,2.29
			c1.87,0,3.53-0.2,4.97-0.59c1.45-0.4,2.59-0.76,3.44-1.1l1.7,8.16c-1.19,0.51-2.75,1.04-4.67,1.57c-1.93,0.54-4.19,0.81-6.8,0.81
			c-3.17,0-5.82-0.42-7.95-1.27c-2.12-0.85-3.81-2.08-5.06-3.7c-1.25-1.62-2.12-3.57-2.63-5.87s-0.76-4.92-0.76-7.86V226.4z"/>
		<path d="M820.76,237.02c3.4,0,6.26,0.43,8.58,1.27c2.32,0.85,4.18,2.04,5.57,3.57c1.39,1.53,2.38,3.39,2.98,5.57
			c0.59,2.18,0.89,4.58,0.89,7.18v26.95c-1.59,0.34-3.98,0.75-7.18,1.23c-3.2,0.48-6.82,0.72-10.84,0.72c-2.66,0-5.1-0.25-7.31-0.76
			s-4.09-1.33-5.65-2.46c-1.56-1.13-2.78-2.61-3.65-4.42c-0.88-1.81-1.32-4.05-1.32-6.71c0-2.55,0.5-4.7,1.49-6.46
			c0.99-1.76,2.34-3.19,4.04-4.29c1.7-1.1,3.67-1.9,5.91-2.38c2.24-0.48,4.58-0.72,7.01-0.72c1.13,0,2.32,0.07,3.57,0.21
			c1.25,0.14,2.58,0.38,4,0.72v-1.7c0-1.19-0.14-2.32-0.42-3.4c-0.28-1.08-0.78-2.03-1.49-2.85c-0.71-0.82-1.64-1.46-2.8-1.91
			c-1.16-0.45-2.62-0.68-4.38-0.68c-2.38,0-4.56,0.17-6.55,0.51s-3.6,0.74-4.84,1.19l-1.27-8.33c1.3-0.45,3.2-0.91,5.69-1.36
			C815.26,237.25,817.93,237.02,820.76,237.02z M821.61,275.36c3.17,0,5.58-0.17,7.23-0.51v-11.39c-0.57-0.17-1.39-0.34-2.46-0.51
			c-1.08-0.17-2.27-0.25-3.57-0.25c-1.13,0-2.28,0.08-3.44,0.25c-1.16,0.17-2.21,0.48-3.15,0.93c-0.93,0.45-1.69,1.09-2.25,1.91
			c-0.57,0.82-0.85,1.86-0.85,3.1c0,2.44,0.77,4.12,2.3,5.06C816.94,274.89,819,275.36,821.61,275.36z"/>
		<path d="M888.93,281.22c-2.04,0.62-4.6,1.19-7.69,1.7c-3.09,0.51-6.33,0.77-9.73,0.77c-3.51,0-6.66-0.54-9.44-1.62
			c-2.78-1.08-5.14-2.62-7.1-4.63c-1.96-2.01-3.46-4.45-4.5-7.31c-1.05-2.86-1.57-6.08-1.57-9.65c0-3.51,0.44-6.7,1.32-9.56
			c0.88-2.86,2.17-5.31,3.87-7.35c1.7-2.04,3.77-3.61,6.21-4.72s5.24-1.66,8.42-1.66c2.15,0,4.05,0.26,5.7,0.77
			c1.64,0.51,3.06,1.08,4.25,1.7v-21.33l10.29-1.7V281.22z M859.44,260.23c0,4.54,1.08,8.09,3.23,10.67
			c2.15,2.58,5.13,3.87,8.93,3.87c1.64,0,3.04-0.07,4.21-0.21c1.16-0.14,2.11-0.3,2.85-0.47v-25.5c-0.91-0.62-2.11-1.2-3.61-1.74
			c-1.5-0.54-3.1-0.81-4.8-0.81c-3.74,0-6.47,1.27-8.2,3.83C860.3,252.41,859.44,255.86,859.44,260.23z"/>
		<path d="M901.51,226.4l10.29-1.7v13.43h15.81v8.58H911.8v18.11c0,3.57,0.57,6.12,1.7,7.65c1.13,1.53,3.06,2.29,5.78,2.29
			c1.87,0,3.53-0.2,4.97-0.59c1.45-0.4,2.59-0.76,3.44-1.1l1.7,8.16c-1.19,0.51-2.75,1.04-4.67,1.57c-1.93,0.54-4.19,0.81-6.8,0.81
			c-3.17,0-5.82-0.42-7.95-1.27c-2.12-0.85-3.81-2.08-5.06-3.7c-1.25-1.62-2.12-3.57-2.63-5.87s-0.76-4.92-0.76-7.86V226.4z"/>
	</g>
</g>
</svg>
